<?xml version="1.0" encoding="UTF-8" standalone="no" ?>
<!DOCTYPE svg PUBLIC "-//W3C//DTD SVG 1.1//EN" "http://www.w3.org/Graphics/SVG/1.1/DTD/svg11.dtd">
<svg xmlns="http://www.w3.org/2000/svg" xmlns:xlink="http://www.w3.org/1999/xlink" version="1.1" width="1280" height="1024" viewBox="0 0 1280 1024" xml:space="preserve">
<desc>Created with Fabric.js 5.3.0</desc>
<defs>
</defs>
<g transform="matrix(1 0 0 1 640 512)" id="background-logo"  >
<rect style="stroke: none; stroke-width: 0; stroke-dasharray: none; stroke-linecap: butt; stroke-dashoffset: 0; stroke-linejoin: miter; stroke-miterlimit: 4; fill: rgb(0,0,0); fill-rule: nonzero; opacity: 1;"  paint-order="stroke"  x="-640" y="-512" rx="0" ry="0" width="1280" height="1024" />
</g>
<g transform="matrix(1.9211538461538462 0 0 1.9211538461538462 640 415.2851170111211)" id="logo-logo"  >
<g style=""  paint-order="stroke"   >
		<g transform="matrix(0.8344897203358166 0 0 -0.8344897203358166 -39.23562042588918 44.42214093572042)"  >
<path style="stroke: none; stroke-width: 1; stroke-dasharray: none; stroke-linecap: butt; stroke-dashoffset: 0; stroke-linejoin: miter; stroke-miterlimit: 4; fill: rgb(255,255,255); fill-rule: nonzero; opacity: 1;"  paint-order="stroke"  transform=" translate(-50.8675, 41.747)" d="M 0 0 L 0 -26.369 L 101.735 -83.494 L 101.735 -57.123999999999995 z" stroke-linecap="round" />
</g>
		<g transform="matrix(0.8344897203358166 0 0 -0.8344897203358166 0 -11.385110152485623)"  >
<path style="stroke: none; stroke-width: 1; stroke-dasharray: none; stroke-linecap: butt; stroke-dashoffset: 0; stroke-linejoin: miter; stroke-miterlimit: 4; fill: rgb(255,255,255); fill-rule: nonzero; opacity: 1;"  paint-order="stroke"  transform=" translate(97.885, -6.788500000000013)" d="M 0 0 L 0 88.125 L -75.507 88.125 L -33.934000000000005 65.132 L -22.993000000000002 65.132 L -22.993000000000002 38.845 L -112.78999999999999 88.125 L -195.76999999999998 88.125 L -195.76999999999998 55.576 L -42.171 -27.849 L -55.133 -45.835 L -195.77 29.485 L -195.77 3.403 L -50.22 -74.54799999999999 L -8.68 -19.873999999999988 L -165.19 65.132 L -118.684 65.132 z" stroke-linecap="round" />
</g>
</g>
</g>
<g transform="matrix(1.9211538461538462 0 0 1.9211538461538462 640.2555134615383 645.4991922108055)" id="text-logo"  >
<g style=""  paint-order="stroke"   >
		<g transform="matrix(1 0 0 1 5.684342e-14 0)" id="text-logo-path-0"  >
<path style="stroke: none; stroke-width: 0; stroke-dasharray: none; stroke-linecap: butt; stroke-dashoffset: 0; stroke-linejoin: miter; stroke-miterlimit: 4; fill: rgb(255,255,255); fill-rule: nonzero; opacity: 1;"  paint-order="stroke"  transform=" translate(-140.71499999999997, 12.75)" d="M 15.47 0.61 C 17.82 0.61 20.03 0.11 21.89 -0.76 L 24.09 1.71 L 28.5 -2.47 L 26.6 -4.56 C 28.35 -6.88 29.34 -9.8 29.34 -13.26 C 29.34 -21.36 23.86 -27.21 15.47 -27.21 C 7.45 -27.21 1.6 -21.66 1.6 -13.26 C 1.6 -5.24 7.11 0.61 15.47 0.61 Z M 15.47 -5.4 C 11.13 -5.4 7.94 -8.78 7.94 -13.26 C 7.94 -17.67 10.91 -21.2 15.47 -21.2 C 19.8 -21.2 22.99 -17.78 22.99 -13.26 C 22.99 -11.93 22.69 -10.64 22.15 -9.54 L 18.7 -13.41 L 14.29 -9.23 L 17.48 -5.66 C 16.91 -5.51 16.19 -5.4 15.47 -5.4 Z M 73.07 -11.97 L 73.07 -26.6 L 66.99 -26.6 L 66.99 -11.97 C 66.99 -8.21 64.45 -5.47 60.57 -5.47 C 56.81 -5.47 54.07 -8.06 54.07 -11.97 L 54.07 -26.6 L 47.99 -26.6 L 47.99 -11.97 C 47.99 -4.67 53.01 0.61 60.61 0.61 C 67.79 0.61 73.07 -4.41 73.07 -11.97 Z M 93.1 -26.6 L 93.1 0 L 99.18 0 L 99.18 -26.6 Z M 133.11 0.61 C 138.62 0.61 143.15 -2.01 145.39 -6.38 L 140.14 -9.58 C 138.97 -7.26 136.19 -5.4 133.11 -5.4 C 128.78 -5.4 125.59 -8.78 125.59 -13.26 C 125.59 -17.67 128.55 -21.2 133.11 -21.2 C 136.27 -21.2 139.19 -19.23 140.33 -16.61 L 145.58 -19.87 C 143.41 -24.36 139 -27.21 133.11 -27.21 C 125.1 -27.21 119.24 -21.66 119.24 -13.26 C 119.24 -5.24 124.75 0.61 133.11 0.61 Z M 165.22 -26.6 L 165.22 0 L 171.3 0 L 171.3 -5.59 L 175.9 -10.98 L 183.08 0 L 190.68 0 L 179.74 -15.54 L 189.16 -26.6 L 181.94 -26.6 L 171.3 -14.36 L 171.3 -26.6 Z M 221.2 0.61 C 226.71 0.61 231.23 -2.01 233.47 -6.38 L 228.23 -9.58 C 227.05 -7.26 224.28 -5.4 221.2 -5.4 C 216.87 -5.4 213.67 -8.78 213.67 -13.26 C 213.67 -17.67 216.64 -21.2 221.2 -21.2 C 224.35 -21.2 227.28 -19.23 228.42 -16.61 L 233.66 -19.87 C 231.5 -24.36 227.09 -27.21 221.2 -27.21 C 213.18 -27.21 207.33 -21.66 207.33 -13.26 C 207.33 -5.24 212.84 0.61 221.2 0.61 Z M 250.19 -26.6 L 261.59 0 L 268.43 0 L 279.83 -26.6 L 273.18 -26.6 L 265.01 -7.52 L 256.84 -26.6 Z" stroke-linecap="round" />
</g>
</g>
</g>
<g transform="matrix(1.9211538461538462 0 0 1.9211538461538462 639.8837701923079 727.7071334554114)" id="tagline-3f41a7dc-3fe8-4f3a-a30c-95b4516446a6-logo"  >
<g style=""  paint-order="stroke"   >
		<g transform="matrix(1 0 0 1 0 0)" id="tagline-3f41a7dc-3fe8-4f3a-a30c-95b4516446a6-logo-path-0"  >
<path style="stroke: none; stroke-width: 0; stroke-dasharray: none; stroke-linecap: butt; stroke-dashoffset: 0; stroke-linejoin: miter; stroke-miterlimit: 4; fill: rgb(255,255,255); fill-rule: nonzero; opacity: 1;"  paint-order="stroke"  transform=" translate(-304.06, 7.699999999999999)" d="M 8.01 -6.71 L 10.98 -6.71 L 10.98 -3.04 C 10.08 -2.38 8.98 -2.07 7.72 -2.07 C 5.24 -2.07 3.3 -3.96 3.3 -7.72 C 3.3 -11.44 5.24 -13.33 7.72 -13.33 C 9.11 -13.33 10.3 -12.91 11.2 -12.06 L 12.41 -13.95 C 11.2 -14.96 9.61 -15.53 7.72 -15.53 C 3.72 -15.53 0.88 -12.39 0.88 -7.72 C 0.88 -3.01 3.72 0.13 7.72 0.13 C 8.93 0.13 10.03 -0.11 10.98 -0.55 L 10.98 0 L 13.4 0 L 13.4 -8.69 L 8.01 -8.69 Z M 33.64 0 L 42.81 0 L 43.03 -1.98 L 36.06 -1.98 L 36.06 -6.71 L 41.45 -6.71 L 41.67 -8.69 L 36.06 -8.69 L 36.06 -13.42 L 42.59 -13.42 L 42.81 -15.4 L 32.98 -15.4 L 32.76 -13.42 L 33.64 -13.42 Z M 66.42 0 L 68.84 0 L 68.84 -13.42 L 72.62 -13.42 L 72.84 -15.4 L 62.61 -15.4 L 62.39 -13.42 L 66.42 -13.42 Z M 115.08 0 L 117.5 0 L 117.5 -11.51 L 123.33 0 L 126.41 0 L 126.41 -15.4 L 123.99 -15.4 L 123.99 -3.89 L 118.16 -15.4 L 114.42 -15.4 L 114.2 -13.42 L 115.08 -13.42 Z M 153.21 0.13 C 157.56 0.13 160.64 -3.01 160.64 -7.72 C 160.64 -12.39 157.56 -15.53 153.21 -15.53 C 148.85 -15.53 145.77 -12.39 145.77 -7.72 C 145.77 -3.01 148.85 0.13 153.21 0.13 Z M 153.21 -2.07 C 150.5 -2.07 148.19 -3.96 148.19 -7.72 C 148.19 -11.44 150.5 -13.33 153.21 -13.33 C 155.91 -13.33 158.22 -11.44 158.22 -7.72 C 158.22 -3.96 155.91 -2.07 153.21 -2.07 Z M 182.49 0 L 184.91 0 L 184.91 -13.42 L 188.69 -13.42 L 188.91 -15.4 L 178.68 -15.4 L 178.46 -13.42 L 182.49 -13.42 Z M 209.15 0 L 211.57 0 L 211.57 -15.4 L 208.49 -15.4 L 208.27 -13.42 L 209.15 -13.42 Z M 242.9 -2.11 L 241.74 -3.89 C 240.66 -2.62 239.25 -2.07 237.56 -2.07 C 235.07 -2.07 233.13 -3.96 233.13 -7.72 C 233.13 -11.44 235.07 -13.33 237.56 -13.33 C 238.94 -13.33 240.13 -12.91 241.03 -12.06 L 242.24 -13.95 C 241.03 -14.96 239.45 -15.53 237.56 -15.53 C 233.55 -15.53 230.71 -12.39 230.71 -7.72 C 230.71 -3.01 233.55 0.13 237.56 0.13 C 239.8 0.13 241.65 -0.68 242.9 -2.11 Z M 262.7 0 L 271.88 0 L 272.1 -1.98 L 265.12 -1.98 L 265.12 -6.71 L 270.51 -6.71 L 270.73 -8.69 L 265.12 -8.69 L 265.12 -13.42 L 271.66 -13.42 L 271.88 -15.4 L 262.04 -15.4 L 261.82 -13.42 L 262.7 -13.42 Z M 292.34 0 L 296.23 0 C 301 0 303.93 -2.75 303.93 -7.7 C 303.93 -12.47 301.18 -15.4 296.23 -15.4 L 291.68 -15.4 L 291.46 -13.42 L 292.34 -13.42 Z M 294.76 -1.98 L 294.76 -13.42 L 295.79 -13.42 C 299.33 -13.42 301.51 -11.37 301.51 -7.7 C 301.51 -4.16 299.46 -1.98 295.79 -1.98 Z M 324.13 0.13 C 324.81 0.13 325.38 -0.46 325.38 -1.14 C 325.38 -1.83 324.81 -2.4 324.13 -2.4 C 323.44 -2.4 322.85 -1.83 322.85 -1.14 C 322.85 -0.46 323.44 0.13 324.13 0.13 Z M 373.87 -6.71 L 376.84 -6.71 L 376.84 -3.04 C 375.94 -2.38 374.84 -2.07 373.58 -2.07 C 371.1 -2.07 369.16 -3.96 369.16 -7.72 C 369.16 -11.44 371.1 -13.33 373.58 -13.33 C 374.97 -13.33 376.16 -12.91 377.06 -12.06 L 378.27 -13.95 C 377.06 -14.96 375.47 -15.53 373.58 -15.53 C 369.58 -15.53 366.74 -12.39 366.74 -7.72 C 366.74 -3.01 369.58 0.13 373.58 0.13 C 374.79 0.13 375.89 -0.11 376.84 -0.55 L 376.84 0 L 379.26 0 L 379.26 -8.69 L 373.87 -8.69 Z M 399.5 0 L 408.67 0 L 408.89 -1.98 L 401.92 -1.98 L 401.92 -6.71 L 407.31 -6.71 L 407.53 -8.69 L 401.92 -8.69 L 401.92 -13.42 L 408.45 -13.42 L 408.67 -15.4 L 398.84 -15.4 L 398.62 -13.42 L 399.5 -13.42 Z M 432.28 0 L 434.7 0 L 434.7 -13.42 L 438.48 -13.42 L 438.7 -15.4 L 428.47 -15.4 L 428.25 -13.42 L 432.28 -13.42 Z M 480.94 0 L 483.36 0 L 483.36 -6.71 L 489.85 -6.71 L 489.85 0 L 492.27 0 L 492.27 -15.4 L 489.85 -15.4 L 489.85 -8.69 L 483.36 -8.69 L 483.36 -15.4 L 480.28 -15.4 L 480.06 -13.42 L 480.94 -13.42 Z M 512.51 0 L 514.93 0 L 514.93 -15.4 L 511.85 -15.4 L 511.63 -13.42 L 512.51 -13.42 Z M 535.17 0 L 537.59 0 L 537.59 -6.27 L 540.1 -6.27 L 543.14 0 L 545.78 0 L 542.59 -6.56 C 544.28 -7.13 545.31 -8.6 545.31 -10.8 C 545.31 -13.55 543.6 -15.4 540.78 -15.4 L 534.51 -15.4 L 534.29 -13.42 L 535.17 -13.42 Z M 537.59 -8.25 L 537.59 -13.42 L 540.32 -13.42 C 541.9 -13.42 542.89 -12.47 542.89 -10.82 C 542.89 -9.28 541.93 -8.25 540.32 -8.25 Z M 566.02 0 L 575.19 0 L 575.41 -1.98 L 568.44 -1.98 L 568.44 -6.71 L 573.83 -6.71 L 574.05 -8.69 L 568.44 -8.69 L 568.44 -13.42 L 574.97 -13.42 L 575.19 -15.4 L 565.36 -15.4 L 565.14 -13.42 L 566.02 -13.42 Z M 595.65 0 L 599.54 0 C 604.32 0 607.24 -2.75 607.24 -7.7 C 607.24 -12.47 604.49 -15.4 599.54 -15.4 L 594.99 -15.4 L 594.77 -13.42 L 595.65 -13.42 Z M 598.07 -1.98 L 598.07 -13.42 L 599.1 -13.42 C 602.65 -13.42 604.82 -11.37 604.82 -7.7 C 604.82 -4.16 602.78 -1.98 599.1 -1.98 Z" stroke-linecap="round" />
</g>
</g>
</g>
</svg>